<?xml version="1.0" encoding="UTF-8" standalone="no"?>
<!DOCTYPE svg PUBLIC "-//W3C//DTD SVG 1.1//EN"
 "http://www.w3.org/Graphics/SVG/1.1/DTD/svg11.dtd">
<!-- Generated by graphviz version 9.0.0 (20230911.1827)
 -->
<!-- Pages: 1 -->
<svg width="511pt" height="372pt"
 viewBox="0.00 0.00 511.41 371.72" xmlns="http://www.w3.org/2000/svg" xmlns:xlink="http://www.w3.org/1999/xlink">
<g id="graph0" class="graph" transform="scale(1 1) rotate(0) translate(4 367.72)">
<polygon fill="white" stroke="none" points="-4,4 -4,-367.72 507.41,-367.72 507.41,4 -4,4"/>
<!-- Sort -->
<g id="node1" class="node">
<title>Sort</title>
<g id="a_node1"><a xlink:href="#" xlink:title="Sort&#10;&#10;&#10;">
<ellipse fill="none" stroke="black" cx="221.14" cy="-162" rx="27" ry="18"/>
<text text-anchor="middle" x="221.14" y="-156.57" font-family="Times New Roman,serif" font-size="14.00">Sort</text>
</a>
</g>
</g>
<!-- Aggregate -->
<g id="node2" class="node">
<title>Aggregate</title>
<g id="a_node2"><a xlink:href="#" xlink:title="Aggregate&#10;&#10;&#10;">
<ellipse fill="none" stroke="black" cx="221.14" cy="-90" rx="48.07" ry="18"/>
<text text-anchor="middle" x="221.14" y="-84.58" font-family="Times New Roman,serif" font-size="14.00">Aggregate</text>
</a>
</g>
</g>
<!-- Sort&#45;&gt;Aggregate -->
<g id="edge6" class="edge">
<title>Sort&#45;&gt;Aggregate</title>
<path fill="none" stroke="black" d="M215.26,-144.05C214.47,-136.68 214.22,-127.84 214.49,-119.51"/>
<polygon fill="black" stroke="black" points="217.97,-119.99 215.12,-109.79 210.98,-119.54 217.97,-119.99"/>
</g>
<!-- Aggregate&#45;&gt;Sort -->
<g id="edge1" class="edge">
<title>Aggregate&#45;&gt;Sort</title>
<path fill="none" stroke="black" d="M227.05,-108.28C227.81,-115.6 228.05,-124.34 227.78,-132.57"/>
<polygon fill="black" stroke="black" points="224.29,-132.33 227.11,-142.54 231.27,-132.8 224.29,-132.33"/>
</g>
<!-- Gather -->
<g id="node3" class="node">
<title>Gather</title>
<g id="a_node3"><a xlink:href="#" xlink:title="Gather&#10;&#10;&#10;">
<ellipse fill="none" stroke="black" cx="164.14" cy="-18" rx="35.6" ry="18"/>
<text text-anchor="middle" x="164.14" y="-12.57" font-family="Times New Roman,serif" font-size="14.00">Gather</text>
</a>
</g>
</g>
<!-- Aggregate&#45;&gt;Gather -->
<g id="edge7" class="edge">
<title>Aggregate&#45;&gt;Gather</title>
<path fill="none" stroke="black" d="M202.44,-73.12C194.68,-64.77 185.91,-54.32 178.64,-44.84"/>
<polygon fill="black" stroke="black" points="181.61,-42.97 172.85,-37.01 175.98,-47.14 181.61,-42.97"/>
</g>
<!-- Gather Merge -->
<g id="node9" class="node">
<title>Gather Merge</title>
<g id="a_node9"><a xlink:href="#" xlink:title="Gather Merge&#10;&#10;&#10;">
<ellipse fill="none" stroke="black" cx="279.14" cy="-18" rx="61.54" ry="18"/>
<text text-anchor="middle" x="279.14" y="-12.57" font-family="Times New Roman,serif" font-size="14.00">Gather Merge</text>
</a>
</g>
</g>
<!-- Aggregate&#45;&gt;Gather Merge -->
<g id="edge14" class="edge">
<title>Aggregate&#45;&gt;Gather Merge</title>
<path fill="none" stroke="black" d="M229.3,-72.05C235.47,-63.5 244,-52.97 252.31,-43.56"/>
<polygon fill="black" stroke="black" points="254.66,-46.18 258.8,-36.43 249.48,-41.47 254.66,-46.18"/>
</g>
<!-- Gather&#45;&gt;Aggregate -->
<g id="edge3" class="edge">
<title>Gather&#45;&gt;Aggregate</title>
<path fill="none" stroke="black" d="M181.9,-33.89C189.86,-42.36 199,-53.22 206.55,-63.05"/>
<polygon fill="black" stroke="black" points="203.55,-64.88 212.31,-70.84 209.18,-60.72 203.55,-64.88"/>
</g>
<!-- Hash Join -->
<g id="node4" class="node">
<title>Hash Join</title>
<g id="a_node4"><a xlink:href="#" xlink:title="Hash Join&#10;&#10;&#10;(supplier.s_nationkey = nation.n_nationkey)">
<ellipse fill="none" stroke="black" cx="221.14" cy="-243.93" rx="47.07" ry="18"/>
<text text-anchor="middle" x="221.14" y="-238.51" font-family="Times New Roman,serif" font-size="14.00">Hash Join</text>
</a>
</g>
</g>
<!-- Hash Join&#45;&gt;Sort -->
<g id="edge2" class="edge">
<title>Hash Join&#45;&gt;Sort</title>
<path fill="none" stroke="black" d="M221.14,-225.59C221.14,-215.64 221.14,-202.9 221.14,-191.51"/>
<polygon fill="black" stroke="black" points="224.64,-191.82 221.14,-181.82 217.64,-191.82 224.64,-191.82"/>
</g>
<!-- Hash Join&#45;&gt;Aggregate -->
<g id="edge4" class="edge">
<title>Hash Join&#45;&gt;Aggregate</title>
<path fill="none" stroke="black" d="M233.82,-226.37C242.27,-214.25 252.61,-197.03 257.14,-180 261.25,-164.54 261.84,-159.29 257.14,-144 254.13,-134.22 248.63,-124.62 242.83,-116.34"/>
<polygon fill="black" stroke="black" points="245.73,-114.38 236.91,-108.5 240.14,-118.59 245.73,-114.38"/>
</g>
<!-- Hash -->
<g id="node6" class="node">
<title>Hash</title>
<g id="a_node6"><a xlink:href="#" xlink:title="Hash&#10;&#10;&#10;">
<ellipse fill="none" stroke="black" cx="146.14" cy="-162" rx="29.61" ry="18"/>
<text text-anchor="middle" x="146.14" y="-156.57" font-family="Times New Roman,serif" font-size="14.00">Hash</text>
</a>
</g>
</g>
<!-- Hash Join&#45;&gt;Hash -->
<g id="edge12" class="edge">
<title>Hash Join&#45;&gt;Hash</title>
<path fill="none" stroke="black" d="M201.22,-227.52C189.34,-216.31 174.6,-200.9 163.24,-187.95"/>
<polygon fill="black" stroke="black" points="166.14,-185.95 156.98,-180.62 160.81,-190.5 166.14,-185.95"/>
</g>
<!-- Seq Scan -->
<g id="node5" class="node">
<title>Seq Scan</title>
<g id="a_node5"><a xlink:href="#" xlink:title="Seq Scan&#10;partsupp&#10;&#10;">
<ellipse fill="none" stroke="black" cx="68.14" cy="-335.79" rx="48.97" ry="27.93"/>
<text text-anchor="middle" x="68.14" y="-338.24" font-family="Times New Roman,serif" font-size="14.00">Seq Scan</text>
<text text-anchor="middle" x="68.14" y="-322.49" font-family="Times New Roman,serif" font-size="14.00">partsupp</text>
</a>
</g>
</g>
<!-- Seq Scan&#45;&gt;Hash Join -->
<g id="edge8" class="edge">
<title>Seq Scan&#45;&gt;Hash Join</title>
<path fill="none" stroke="black" d="M101.71,-315.07C126.87,-300.29 161.19,-280.14 186.59,-265.22"/>
<polygon fill="black" stroke="black" points="188.03,-268.43 194.88,-260.35 184.48,-262.4 188.03,-268.43"/>
</g>
<!-- Hash&#45;&gt;Hash Join -->
<g id="edge9" class="edge">
<title>Hash&#45;&gt;Hash Join</title>
<path fill="none" stroke="black" d="M164.27,-176.74C176.3,-187.93 191.77,-204.03 203.65,-217.55"/>
<polygon fill="black" stroke="black" points="200.72,-219.51 209.88,-224.83 206.04,-214.96 200.72,-219.51"/>
</g>
<!-- Seq Scan_supplier -->
<g id="node7" class="node">
<title>Seq Scan_supplier</title>
<g id="a_node7"><a xlink:href="#" xlink:title="Seq Scan_supplier&#10;supplier&#10;(s_acctbal &gt; &#39;10&#39;::numeric)&#10;">
<ellipse fill="none" stroke="black" cx="221.14" cy="-335.79" rx="85.56" ry="27.93"/>
<text text-anchor="middle" x="221.14" y="-338.24" font-family="Times New Roman,serif" font-size="14.00">Seq Scan_supplier</text>
<text text-anchor="middle" x="221.14" y="-322.49" font-family="Times New Roman,serif" font-size="14.00">supplier</text>
</a>
</g>
</g>
<!-- Seq Scan_supplier&#45;&gt;Hash Join -->
<g id="edge10" class="edge">
<title>Seq Scan_supplier&#45;&gt;Hash Join</title>
<path fill="none" stroke="black" d="M221.14,-307.83C221.14,-296.97 221.14,-284.44 221.14,-273.43"/>
<polygon fill="black" stroke="black" points="224.64,-273.75 221.14,-263.75 217.64,-273.75 224.64,-273.75"/>
</g>
<!-- Seq Scan_nation -->
<g id="node8" class="node">
<title>Seq Scan_nation</title>
<g id="a_node8"><a xlink:href="#" xlink:title="Seq Scan_nation&#10;nation&#10;(n_name = &#39;GERMANY&#39;::bpchar)&#10;">
<ellipse fill="none" stroke="black" cx="78.14" cy="-243.93" rx="78.14" ry="27.93"/>
<text text-anchor="middle" x="78.14" y="-246.38" font-family="Times New Roman,serif" font-size="14.00">Seq Scan_nation</text>
<text text-anchor="middle" x="78.14" y="-230.63" font-family="Times New Roman,serif" font-size="14.00">nation</text>
</a>
</g>
</g>
<!-- Seq Scan_nation&#45;&gt;Hash -->
<g id="edge13" class="edge">
<title>Seq Scan_nation&#45;&gt;Hash</title>
<path fill="none" stroke="black" d="M100.4,-216.76C108.62,-207.1 117.88,-196.21 125.91,-186.77"/>
<polygon fill="black" stroke="black" points="128.36,-189.3 132.17,-179.41 123.03,-184.76 128.36,-189.3"/>
</g>
<!-- Gather Merge&#45;&gt;Aggregate -->
<g id="edge5" class="edge">
<title>Gather Merge&#45;&gt;Aggregate</title>
<path fill="none" stroke="black" d="M270.72,-36.29C264.47,-44.92 255.89,-55.49 247.56,-64.89"/>
<polygon fill="black" stroke="black" points="245.23,-62.25 241.08,-72 250.4,-66.97 245.23,-62.25"/>
</g>
<!-- Seq Scan_partsupp -->
<g id="node10" class="node">
<title>Seq Scan_partsupp</title>
<g id="a_node10"><a xlink:href="#" xlink:title="Seq Scan_partsupp&#10;partsupp&#10;(ps_supplycost &gt; &#39;20&#39;::numeric)&#10;">
<ellipse fill="none" stroke="black" cx="414.14" cy="-335.79" rx="89.27" ry="27.93"/>
<text text-anchor="middle" x="414.14" y="-338.24" font-family="Times New Roman,serif" font-size="14.00">Seq Scan_partsupp</text>
<text text-anchor="middle" x="414.14" y="-322.49" font-family="Times New Roman,serif" font-size="14.00">partsupp</text>
</a>
</g>
</g>
<!-- Seq Scan_partsupp&#45;&gt;Hash Join -->
<g id="edge11" class="edge">
<title>Seq Scan_partsupp&#45;&gt;Hash Join</title>
<path fill="none" stroke="black" d="M365.18,-312C332.72,-296.88 290.68,-277.31 260.4,-263.21"/>
<polygon fill="black" stroke="black" points="262.14,-260.16 251.59,-259.11 259.18,-266.51 262.14,-260.16"/>
</g>
</g>
</svg>
